<svg width="24" height="24" viewBox="0 0 24 24" fill="none" xmlns="http://www.w3.org/2000/svg">
<path d="M19 2.5C20.3807 2.5 21.5 3.61929 21.5 5V19C21.5 20.3807 20.3807 21.5 19 21.5H5C3.61929 21.5 2.5 20.3807 2.5 19V5C2.5 3.61929 3.61929 2.5 5 2.5H19ZM5 4L4.89746 4.00488C4.39333 4.05621 4 4.48232 4 5V19L4.00488 19.1025C4.05278 19.573 4.42703 19.9472 4.89746 19.9951L5 20H19L19.1025 19.9951C19.573 19.9472 19.9472 19.573 19.9951 19.1025L20 19V5C20 4.48232 19.6067 4.05621 19.1025 4.00488L19 4H5Z" fill="#1B6740"/>
<path d="M16.75 13L16.8271 13.0039C17.2051 13.0425 17.5 13.3618 17.5 13.75C17.5 14.1382 17.2051 14.4575 16.8271 14.4961L16.75 14.5L7.25 14.5C6.83579 14.5 6.5 14.1642 6.5 13.75C6.5 13.3358 6.83579 13 7.25 13L16.75 13Z" fill="#1B6740"/>
<path d="M13.25 16L13.3271 16.0039C13.7051 16.0425 14 16.3618 14 16.75C14 17.1382 13.7051 17.4575 13.3271 17.4961L13.25 17.5L7.25 17.5C6.83579 17.5 6.5 17.1642 6.5 16.75C6.5 16.3358 6.83579 16 7.25 16L13.25 16Z" fill="#1B6740"/>
<path d="M16.7753 6.00098C16.7815 6.00119 16.7876 6.00159 16.7938 6.00195L16.827 6.00391C16.8433 6.00557 16.859 6.01001 16.8749 6.0127C16.8965 6.01636 16.918 6.01983 16.9393 6.02539C16.9617 6.03123 16.9832 6.03907 17.0047 6.04688C17.0266 6.05478 17.0481 6.06325 17.0692 6.07324C17.0921 6.08408 17.114 6.09635 17.1356 6.10938C17.1515 6.11897 17.1672 6.12878 17.1825 6.13965C17.2062 6.15648 17.2283 6.17493 17.2499 6.19434C17.2595 6.20306 17.2708 6.21041 17.2801 6.21973C17.2837 6.22332 17.2864 6.2278 17.2899 6.23145C17.3103 6.2527 17.3278 6.27627 17.3456 6.2998C17.3558 6.31325 17.3667 6.32589 17.3758 6.33984C17.393 6.36592 17.4069 6.39367 17.4208 6.42188C17.4266 6.43382 17.4341 6.44485 17.4393 6.45703C17.4499 6.48189 17.4568 6.50803 17.4647 6.53418C17.4708 6.5544 17.4779 6.57415 17.4823 6.59473C17.4863 6.61394 17.4876 6.63359 17.4901 6.65332C17.4935 6.67939 17.4973 6.70521 17.4979 6.73145C17.4981 6.73762 17.4999 6.74378 17.4999 6.75V9.75C17.4999 10.1642 17.164 10.4999 16.7499 10.5C16.3357 10.5 15.9999 10.1642 15.9999 9.75V8.56055L13.2801 11.2803C13.0232 11.5371 12.6192 11.5728 12.3212 11.3652L9.90123 9.67773L7.70299 11.3477C7.37319 11.5977 6.90263 11.5327 6.65221 11.2031C6.40213 10.8733 6.46704 10.4027 6.79674 10.1523L9.42955 8.15234L9.53112 8.08789C9.7766 7.95731 10.0789 7.97192 10.3124 8.13477L12.6639 9.77441L14.9393 7.5H13.7499C13.3357 7.5 12.9999 7.16421 12.9999 6.75C12.9999 6.33579 13.3357 6 13.7499 6H16.7499L16.7753 6.00098Z" fill="#1B6740"/>
</svg>
