<svg width="42" height="41" viewBox="0 0 42 41" fill="none" xmlns="http://www.w3.org/2000/svg">
<path fill-rule="evenodd" clip-rule="evenodd" d="M21.7771 0C17.434 0 13.9132 3.40904 13.9132 7.61431V12.8857H27.5238V14.35H7.86396C3.52081 14.35 0 17.7591 0 21.9643L8.59361e-07 33.3858C8.59361e-07 37.5911 3.52081 41.0001 7.86396 41.0001H12.4009V34.5572C12.4009 30.352 15.9217 26.9429 20.2648 26.9429H34.7829C38.4578 26.9429 41.437 24.0584 41.437 20.5001V7.61431C41.437 3.40904 37.9162 0 33.573 0H21.7771ZM19.9624 9.37145C21.4657 9.37145 22.6845 8.1914 22.6845 6.73573C22.6845 5.28006 21.4657 4.10001 19.9624 4.10001C18.459 4.10001 17.2402 5.28006 17.2402 6.73573C17.2402 8.1914 18.459 9.37145 19.9624 9.37145Z" fill="url(#paint0_linear_2330_347)"/>
<defs>
<linearGradient id="paint0_linear_2330_347" x1="20.7185" y1="0" x2="20.7185" y2="41.0001" gradientUnits="userSpaceOnUse">
<stop stop-color="#327EBD"/>
<stop offset="1" stop-color="#1565A7"/>
</linearGradient>
</defs>
</svg>
