<svg width="32" height="32" viewBox="0 0 32 32" fill="none" xmlns="http://www.w3.org/2000/svg">
<rect width="32" height="32" rx="4" fill="#072C19"/>
<path d="M16.2231 24.1239L15.7673 23.9681C15.7673 23.9681 15.8229 21.6444 14.9889 21.4776C14.4331 20.8326 15.0781 -5.87487 17.0794 21.3886C17.0794 21.3886 16.39 21.7332 16.2677 22.3226C16.1342 22.9008 16.2231 24.1239 16.2231 24.1239Z" fill="#A6A385"/>
<path d="M16.4681 21.8774C16.4681 21.8774 20.4599 19.2533 19.5257 13.7938C18.6252 9.82459 16.5015 8.52368 16.268 8.02329C16.0123 7.66749 15.7676 7.04492 15.7676 7.04492L15.9345 18.0858C15.9345 18.097 15.5896 21.4658 16.4681 21.8774Z" fill="#499D4A"/>
<path d="M15.5343 22.0216C15.5343 22.0216 11.7871 19.4642 12.0095 14.9612C12.2207 10.458 14.867 8.24537 15.3785 7.84511C15.7121 7.4893 15.7232 7.3558 15.7455 7C15.979 7.50039 15.9346 14.4831 15.9678 15.3058C16.0678 18.4746 15.79 21.4213 15.5343 22.0216Z" fill="#58AA50"/>
</svg>
