<svg width="32" height="32" viewBox="0 0 32 32" fill="none" xmlns="http://www.w3.org/2000/svg">
<rect width="32" height="32" rx="4" fill="#006BC0"/>
<path d="M24.2394 15.6197C24.2394 20.3803 20.3803 24.2394 15.6197 24.2394C10.8592 24.2394 7 20.3803 7 15.6197C7 10.8592 10.8592 7 15.6197 7C20.0137 7 23.6396 10.2878 24.1719 14.5375C24.2106 14.8447 24.2331 15.1567 24.238 15.473C24.2391 15.5219 24.2394 15.5708 24.2394 15.6197Z" fill="#006BC0"/>
<path d="M24.2382 15.4724C23.5022 16.3689 22.06 16.2989 22.06 16.2989C21.1706 20.1306 15.7993 22.0808 12.07 21.1228C8.34099 20.1651 8.85396 15.7173 8.85396 15.7173H19.7679C20.6686 15.7173 20.7372 15.4436 20.7372 15.4436C19.9389 13.5504 21.1707 12.5354 21.1707 12.5354C22.1287 12.7068 22.3679 14.3487 22.3679 14.3487C23.1542 14.2076 23.7858 14.3754 24.1721 14.5369C24.2108 14.8441 24.2333 15.1561 24.2382 15.4724Z" fill="#F2F2F2"/>
<path d="M10.0166 13.9844H11.5449V15.3757H10.0166V13.9844Z" fill="#F2F2F2"/>
<path d="M11.9375 13.9844H13.4658V15.3757H11.9375V13.9844Z" fill="#F2F2F2"/>
<path d="M17.6992 13.9844H19.2275V15.3757H17.6992V13.9844Z" fill="#F2F2F2"/>
<path d="M15.7783 13.9844H17.3066V15.3757H15.7783V13.9844Z" fill="#F2F2F2"/>
<path d="M15.7786 10.4258H17.3069V11.8171H15.7786V10.4258Z" fill="#F2F2F2"/>
<path d="M13.8574 13.9844H15.3857V15.3757H13.8574V13.9844Z" fill="#F2F2F2"/>
<path d="M11.9375 12.2051H13.4658V13.5964H11.9375V12.2051Z" fill="#F2F2F2"/>
<path d="M15.7783 12.2051H17.3066V13.5964H15.7783V12.2051Z" fill="#F2F2F2"/>
<path d="M13.8574 12.2051H15.3857V13.5964H13.8574V12.2051Z" fill="#F2F2F2"/>
</svg>
