<svg width="13" height="15" viewBox="0 0 13 15" fill="none" xmlns="http://www.w3.org/2000/svg">
<path d="M10.1794 9.64366C9.82209 9.64354 9.46838 9.71513 9.13923 9.85417C8.81008 9.99322 8.51217 10.1969 8.26315 10.4531L5.17653 8.46927C5.41933 7.84666 5.41933 7.15554 5.17653 6.53293L8.26315 4.54906C8.72679 5.02398 9.35025 5.30983 10.0127 5.35119C10.6751 5.39256 11.3293 5.18648 11.8484 4.77292C12.3675 4.35936 12.7145 3.76777 12.8223 3.11286C12.93 2.45796 12.7907 1.78638 12.4314 1.22834C12.0721 0.670297 11.5184 0.26555 10.8776 0.0925665C10.2368 -0.0804168 9.55465 -0.00931162 8.96333 0.292096C8.37201 0.593504 7.91367 1.10374 7.67717 1.72388C7.44067 2.34403 7.44286 3.02989 7.68332 3.64851L4.5967 5.63239C4.22501 5.25079 3.74797 4.98871 3.22656 4.87964C2.70515 4.77057 2.16306 4.81947 1.66958 5.02008C1.17611 5.2207 0.753664 5.56391 0.45626 6.00586C0.158856 6.44781 0 6.9684 0 7.5011C0 8.0338 0.158856 8.55439 0.45626 8.99634C0.753664 9.43828 1.17611 9.7815 1.66958 9.98211C2.16306 10.1827 2.70515 10.2316 3.22656 10.1226C3.74797 10.0135 4.22501 9.7514 4.5967 9.36981L7.68332 11.3537C7.47655 11.887 7.44595 12.4725 7.59601 13.0245C7.74607 13.5764 8.06891 14.0659 8.51725 14.4211C8.96559 14.7763 9.51588 14.9786 10.0875 14.9984C10.6592 15.0183 11.2222 14.8546 11.6941 14.5313C12.1659 14.208 12.5219 13.7421 12.7099 13.2019C12.8978 12.6617 12.9079 12.0755 12.7386 11.5291C12.5693 10.9827 12.2295 10.5049 11.769 10.1656C11.3084 9.82637 10.7514 9.64344 10.1794 9.64366ZM10.1794 1.07342C10.4972 1.07342 10.8079 1.16767 11.0722 1.34424C11.3364 1.52081 11.5424 1.77178 11.664 2.0654C11.7856 2.35903 11.8175 2.68213 11.7554 2.99384C11.6934 3.30555 11.5404 3.59187 11.3157 3.81661C11.0909 4.04134 10.8046 4.19438 10.4929 4.25638C10.1812 4.31839 9.85809 4.28657 9.56446 4.16494C9.27084 4.04332 9.01987 3.83736 8.8433 3.5731C8.66673 3.30884 8.57249 2.99816 8.57249 2.68034C8.57249 2.25416 8.74179 1.84544 9.04314 1.54408C9.3445 1.24272 9.75322 1.07342 10.1794 1.07342ZM2.68045 9.10802C2.36263 9.10802 2.05195 9.01377 1.78769 8.8372C1.52344 8.66063 1.31748 8.40967 1.19585 8.11604C1.07423 7.82241 1.04241 7.49932 1.10441 7.1876C1.16641 6.87589 1.31946 6.58957 1.54419 6.36484C1.76892 6.1401 2.05525 5.98706 2.36696 5.92506C2.67867 5.86305 3.00177 5.89488 3.29539 6.0165C3.58902 6.13812 3.83998 6.34409 4.01655 6.60834C4.19313 6.8726 4.28737 7.18328 4.28737 7.5011C4.28737 7.92728 4.11807 8.33601 3.81671 8.63736C3.51536 8.93872 3.10663 9.10802 2.68045 9.10802ZM10.1794 13.9288C9.86159 13.9288 9.55091 13.8345 9.28665 13.658C9.02239 13.4814 8.81643 13.2304 8.69481 12.9368C8.57318 12.6432 8.54136 12.3201 8.60336 12.0084C8.66537 11.6966 8.81841 11.4103 9.04314 11.1856C9.26787 10.9609 9.5542 10.8078 9.86591 10.7458C10.1776 10.6838 10.5007 10.7156 10.7943 10.8373C11.088 10.9589 11.3389 11.1648 11.5155 11.4291C11.6921 11.6934 11.7863 12.004 11.7863 12.3219C11.7863 12.748 11.617 13.1568 11.3157 13.4581C11.0143 13.7595 10.6056 13.9288 10.1794 13.9288Z" fill="#1B6740"/>
</svg>
