<svg width="17" height="13" viewBox="0 0 17 13" fill="none" xmlns="http://www.w3.org/2000/svg">
<path d="M7.39571 4.42921C7.37217 4.35861 7.36277 4.28406 7.36804 4.20982C7.37331 4.13559 7.39316 4.06312 7.42644 3.99655C7.45972 3.92999 7.50579 3.87063 7.56202 3.82187C7.61824 3.77311 7.68352 3.7359 7.75412 3.71238L8.60412 3.42904C8.68931 3.40064 8.78003 3.3929 8.86879 3.40644C8.95756 3.41998 9.04184 3.45442 9.11468 3.50693C9.18752 3.55943 9.24685 3.6285 9.28776 3.70843C9.32867 3.78836 9.35001 3.87687 9.35 3.96667V6.8C9.35 6.95029 9.2903 7.09442 9.18403 7.20069C9.07776 7.30696 8.93362 7.36667 8.78333 7.36667C8.63304 7.36667 8.48891 7.30696 8.38264 7.20069C8.27637 7.09442 8.21667 6.95029 8.21667 6.8V4.75292L8.11254 4.78762C8.04194 4.81116 7.96739 4.82057 7.89316 4.81529C7.81892 4.81002 7.74645 4.79018 7.67989 4.75689C7.61332 4.72361 7.55396 4.67754 7.5052 4.62132C7.45644 4.56509 7.41924 4.49981 7.39571 4.42921ZM17 11.9C17 12.0503 16.9403 12.1944 16.834 12.3007C16.7278 12.407 16.5836 12.4667 16.4333 12.4667H0.566667C0.416377 12.4667 0.272243 12.407 0.165973 12.3007C0.0597022 12.1944 0 12.0503 0 11.9C0 11.7497 0.0597022 11.6056 0.165973 11.4993C0.272243 11.393 0.416377 11.3333 0.566667 11.3333H1.13333V4.53333C1.13333 4.23275 1.25274 3.94449 1.46528 3.73195C1.67782 3.5194 1.96609 3.4 2.26667 3.4H5.1V1.13333C5.1 0.832755 5.2194 0.544487 5.43195 0.331946C5.64449 0.119404 5.93275 0 6.23333 0H10.7667C11.0672 0 11.3555 0.119404 11.5681 0.331946C11.7806 0.544487 11.9 0.832755 11.9 1.13333V6.23333H14.7333C15.0339 6.23333 15.3222 6.35274 15.5347 6.56528C15.7473 6.77782 15.8667 7.06609 15.8667 7.36667V11.3333H16.4333C16.5836 11.3333 16.7278 11.393 16.834 11.4993C16.9403 11.6056 17 11.7497 17 11.9ZM11.9 7.36667V11.3333H14.7333V7.36667H11.9ZM6.23333 11.3333H10.7667V1.13333H6.23333V11.3333ZM2.26667 11.3333H5.1V4.53333H2.26667V11.3333Z" fill="#57534E"/>
</svg>
