<svg width="26" height="29" viewBox="0 0 26 29" fill="none" xmlns="http://www.w3.org/2000/svg">
<path d="M12.867 28.9999C12.4784 28.9999 12.0932 28.8984 11.7527 28.7021L8.20542 26.6014C7.67536 26.3049 7.93396 26.2 8.10862 26.1398C8.81536 25.8927 8.9582 25.8365 9.71233 25.408C9.79154 25.3626 9.89511 25.3789 9.97635 25.4269L12.7018 27.0442C12.7999 27.0977 12.9401 27.0977 13.0308 27.0442L23.657 20.9103C23.7552 20.8541 23.8195 20.7403 23.8195 20.6232V8.36146C23.8195 8.23893 23.7559 8.12994 23.655 8.06902L13.0335 1.93983C12.9353 1.88161 12.8047 1.88161 12.7065 1.93983L2.08639 8.06834C1.98349 8.12656 1.91783 8.24096 1.91783 8.35808V20.6205C1.91783 20.7376 1.98146 20.8493 2.083 20.9048L4.99325 22.5857C6.57327 23.3757 7.53862 22.4449 7.53862 21.5087V9.40669C7.53862 9.23406 7.67401 9.1007 7.84731 9.1007H9.19311C9.36099 9.1007 9.49909 9.23339 9.49909 9.40669V21.5148C9.49909 23.6215 8.35029 24.8319 6.35259 24.8319C5.73791 24.8319 5.25388 24.8319 3.90267 24.1671L1.11495 22.5607C0.425807 22.1613 0 21.4159 0 20.6212V8.35875C0 7.56062 0.425807 6.81596 1.11427 6.42197L11.752 0.285338C12.4249 -0.0951128 13.3185 -0.0951128 13.9867 0.285338L24.6109 6.42468C25.2959 6.8207 25.7245 7.56333 25.7245 8.36146V20.6239C25.7245 21.4193 25.2959 22.1613 24.6102 22.5607L13.986 28.6966C13.6455 28.8936 13.2596 28.9945 12.8663 28.9945" fill="#81CD39"/>
</svg>
