<svg width="11" height="12" viewBox="0 0 11 12" fill="none" xmlns="http://www.w3.org/2000/svg">
<path d="M5.67172 11.8677C0.983063 11.8677 0 9.71525 0 7.91024C0 7.73888 0.138584 7.60167 0.31062 7.60167H1.6951C1.84802 7.60167 1.97705 7.71294 2.00094 7.86382C2.20984 9.27424 2.83245 9.98559 5.66763 9.98559C7.92594 9.98559 8.88647 9.47563 8.88647 8.27752C8.88647 7.58801 8.61272 7.076 5.10441 6.73261C2.16956 6.44315 0.35636 5.79665 0.35636 3.44959C0.35636 1.28754 2.18049 0 5.23549 0C8.66665 0 10.3672 1.19128 10.5816 3.74997C10.5898 3.83872 10.5577 3.92406 10.4983 3.98891C10.4396 4.05035 10.3563 4.0879 10.2703 4.0879H8.87828C8.73355 4.0879 8.60726 3.98618 8.5779 3.84623C8.2427 2.36276 7.43236 1.8883 5.23003 1.8883C2.76486 1.8883 2.47814 2.74643 2.47814 3.3902C2.47814 4.1705 2.81606 4.39852 6.14209 4.83885C9.43603 5.27577 11.0001 5.89291 11.0001 8.20789C11.0001 10.5413 9.05237 11.88 5.6567 11.88" fill="#81CD39"/>
</svg>
