<svg width="12" height="8" viewBox="0 0 12 8" fill="none" xmlns="http://www.w3.org/2000/svg">
<path d="M11.9655 3.838C11.948 3.7985 11.5245 2.859 10.583 1.9175C9.3285 0.663 7.744 0 6 0C4.256 0 2.6715 0.663 1.417 1.9175C0.475495 2.859 0.0499952 3.8 0.0344952 3.838C0.0117518 3.88916 0 3.94452 0 4.0005C0 4.05648 0.0117518 4.11184 0.0344952 4.163C0.0519952 4.2025 0.475495 5.1415 1.417 6.083C2.6715 7.337 4.256 8 6 8C7.744 8 9.3285 7.337 10.583 6.083C11.5245 5.1415 11.948 4.2025 11.9655 4.163C11.9882 4.11184 12 4.05648 12 4.0005C12 3.94452 11.9882 3.88916 11.9655 3.838ZM6 7.2C4.461 7.2 3.1165 6.6405 2.0035 5.5375C1.54682 5.08335 1.15829 4.56548 0.849995 4C1.15821 3.43447 1.54674 2.91659 2.0035 2.4625C3.1165 1.3595 4.461 0.8 6 0.8C7.539 0.8 8.8835 1.3595 9.99649 2.4625C10.4541 2.91648 10.8434 3.43436 11.1525 4C10.792 4.673 9.2215 7.2 6 7.2ZM6 1.6C5.52532 1.6 5.0613 1.74076 4.66663 2.00447C4.27195 2.26819 3.96433 2.64302 3.78268 3.08156C3.60103 3.5201 3.55351 4.00266 3.64611 4.46822C3.73872 4.93377 3.96729 5.36141 4.30294 5.69706C4.63858 6.0327 5.06622 6.26128 5.53178 6.35388C5.99733 6.44649 6.47989 6.39896 6.91844 6.21731C7.35698 6.03566 7.73181 5.72805 7.99552 5.33337C8.25924 4.93869 8.4 4.47467 8.4 4C8.39933 3.36368 8.14627 2.75362 7.69632 2.30367C7.24638 1.85373 6.63631 1.60066 6 1.6ZM6 5.6C5.68355 5.6 5.3742 5.50616 5.11108 5.33035C4.84796 5.15454 4.64289 4.90465 4.52179 4.61229C4.40069 4.31993 4.369 3.99823 4.43074 3.68786C4.49248 3.37749 4.64486 3.09239 4.86862 2.86863C5.09239 2.64487 5.37748 2.49248 5.68785 2.43074C5.99822 2.36901 6.31993 2.40069 6.61229 2.52179C6.90465 2.64289 7.15454 2.84797 7.33035 3.11109C7.50616 3.37421 7.6 3.68355 7.6 4C7.6 4.42435 7.43142 4.83131 7.13137 5.13137C6.83131 5.43143 6.42434 5.6 6 5.6Z" fill="#78716C"/>
</svg>
