<svg width="18" height="20" viewBox="0 0 18 20" fill="none" xmlns="http://www.w3.org/2000/svg">
<path d="M17.7958 14.2469C17.2754 13.3505 16.5018 10.8141 16.5018 7.50132C16.5018 5.51185 15.7115 3.60386 14.3047 2.19709C12.898 0.790316 10.99 0 9.0005 0C7.01103 0 5.10304 0.790316 3.69626 2.19709C2.28949 3.60386 1.49918 5.51185 1.49918 7.50132C1.49918 10.815 0.724666 13.3505 0.204262 14.2469C0.0713671 14.4748 0.0009145 14.7337 8.84309e-06 14.9975C-0.000896814 15.2613 0.0677766 15.5207 0.199104 15.7495C0.330431 15.9783 0.519767 16.1684 0.748019 16.3007C0.976271 16.433 1.23537 16.5027 1.49918 16.5029H5.32579C5.49886 17.3498 5.95911 18.1109 6.62871 18.6575C7.2983 19.2041 8.13614 19.5026 9.0005 19.5026C9.86486 19.5026 10.7027 19.2041 11.3723 18.6575C12.0419 18.1109 12.5021 17.3498 12.6752 16.5029H16.5018C16.7656 16.5026 17.0245 16.4327 17.2527 16.3003C17.4808 16.168 17.67 15.9779 17.8012 15.7491C17.9324 15.5203 18.001 15.261 18.0001 14.9973C17.9991 14.7335 17.9287 14.4747 17.7958 14.2469ZM9.0005 18.0032C8.53525 18.003 8.08148 17.8587 7.70165 17.59C7.32181 17.3213 7.03459 16.9416 6.8795 16.5029H11.1215C10.9664 16.9416 10.6792 17.3213 10.2994 17.59C9.91952 17.8587 9.46575 18.003 9.0005 18.0032ZM1.49918 15.0026C2.22118 13.7612 2.99944 10.8844 2.99944 7.50132C2.99944 5.90974 3.63169 4.38335 4.75711 3.25793C5.88253 2.13252 7.40892 1.50026 9.0005 1.50026C10.5921 1.50026 12.1185 2.13252 13.2439 3.25793C14.3693 4.38335 15.0016 5.90974 15.0016 7.50132C15.0016 10.8816 15.7779 13.7584 16.5018 15.0026H1.49918Z" fill="white"/>
</svg>
