<svg width="12" height="10" viewBox="0 0 12 10" fill="none" xmlns="http://www.w3.org/2000/svg">
<path d="M11.8532 5.35377L7.35339 9.85355C7.25958 9.94736 7.13233 10.0001 6.99966 10.0001C6.86698 10.0001 6.73974 9.94736 6.64593 9.85355C6.55211 9.75973 6.4994 9.63249 6.4994 9.49981C6.4994 9.36714 6.55211 9.2399 6.64593 9.14608L10.2926 5.50001H0.499976C0.367374 5.50001 0.240203 5.44733 0.14644 5.35357C0.0526759 5.25981 0 5.13264 0 5.00003C0 4.86743 0.0526759 4.74026 0.14644 4.6465C0.240203 4.55273 0.367374 4.50006 0.499976 4.50006H10.2926L6.64593 0.853986C6.55211 0.760171 6.4994 0.632929 6.4994 0.500254C6.4994 0.367578 6.55211 0.240337 6.64593 0.146521C6.73974 0.0527051 6.86698 0 6.99966 0C7.13233 0 7.25958 0.0527051 7.35339 0.146521L11.8532 4.6463C11.8997 4.69273 11.9365 4.74788 11.9617 4.80857C11.9869 4.86927 11.9998 4.93433 11.9998 5.00003C11.9998 5.06574 11.9869 5.1308 11.9617 5.19149C11.9365 5.25219 11.8997 5.30733 11.8532 5.35377Z" fill="#8BEAB7"/>
</svg>
