<svg width="11" height="7" viewBox="0 0 11 7" fill="none" xmlns="http://www.w3.org/2000/svg">
<path d="M10.8887 0.388875V3.49987C10.8887 3.60301 10.8477 3.70192 10.7748 3.77485C10.7019 3.84778 10.603 3.88875 10.4998 3.88875C10.3967 3.88875 10.2978 3.84778 10.2249 3.77485C10.1519 3.70192 10.111 3.60301 10.111 3.49987V1.32752L6.10847 5.3305C6.07235 5.36666 6.02946 5.39534 5.98225 5.41491C5.93505 5.43448 5.88444 5.44455 5.83334 5.44455C5.78223 5.44455 5.73163 5.43448 5.68442 5.41491C5.63721 5.39534 5.59433 5.36666 5.55821 5.3305L3.88896 3.66077L0.66422 6.886C0.591251 6.95897 0.492284 6.99996 0.389091 6.99996C0.285898 6.99996 0.186931 6.95897 0.113962 6.886C0.0409934 6.81303 0 6.71407 0 6.61087C0 6.50768 0.0409934 6.40871 0.113962 6.33574L3.61384 2.83587C3.64995 2.79971 3.69284 2.77103 3.74005 2.75146C3.78726 2.73189 3.83786 2.72182 3.88896 2.72182C3.94007 2.72182 3.99067 2.73189 4.03788 2.75146C4.08509 2.77103 4.12798 2.79971 4.16409 2.83587L5.83334 4.5056L9.56119 0.77775H7.38884C7.2857 0.77775 7.18679 0.736779 7.11386 0.663851C7.04093 0.590923 6.99996 0.492011 6.99996 0.388875C6.99996 0.285739 7.04093 0.186827 7.11386 0.113899C7.18679 0.0409707 7.2857 0 7.38884 0H10.4998C10.603 0 10.7019 0.0409707 10.7748 0.113899C10.8477 0.186827 10.8887 0.285739 10.8887 0.388875Z" fill="#1A7B48"/>
</svg>
