<svg width="11" height="14" viewBox="0 0 11 14" fill="none" xmlns="http://www.w3.org/2000/svg">
<path d="M8.36187 2.21766C7.58463 1.39859 6.71 0.677807 5.7575 0.0714049C5.67973 0.0246831 5.59072 0 5.5 0C5.40928 0 5.32027 0.0246831 5.2425 0.0714049C4.29 0.677807 3.41537 1.39859 2.63812 2.21766C0.911875 4.03016 0 6.02953 0 8.00016C0 9.45885 0.579463 10.8578 1.61091 11.8892C2.64236 12.9207 4.04131 13.5002 5.5 13.5002C6.95869 13.5002 8.35764 12.9207 9.38909 11.8892C10.4205 10.8578 11 9.45885 11 8.00016C11 6.02953 10.0881 4.03016 8.36187 2.21766ZM3.5 10.5002C3.5 8.77078 4.90812 7.54516 5.5 7.10641C6.0925 7.54391 7.5 8.77078 7.5 10.5002C7.5 11.0306 7.28929 11.5393 6.91421 11.9144C6.53914 12.2894 6.03043 12.5002 5.5 12.5002C4.96957 12.5002 4.46086 12.2894 4.08579 11.9144C3.71071 11.5393 3.5 11.0306 3.5 10.5002Z" fill="white"/>
</svg>
