<svg width="10" height="17" viewBox="0 0 10 17" fill="none" xmlns="http://www.w3.org/2000/svg">
<path d="M0.226658 16.7734C0.154817 16.7017 0.0978244 16.6164 0.0589394 16.5226C0.0200554 16.4288 4.15344e-05 16.3283 4.15389e-05 16.2267C4.15433e-05 16.1252 0.0200554 16.0247 0.0589394 15.9308C0.0978244 15.837 0.154817 15.7518 0.226658 15.6801L7.40777 8.49993L0.226658 1.31978C0.0816725 1.1748 0.000219058 0.978153 0.000219067 0.773111C0.000219076 0.568069 0.0816726 0.371425 0.226658 0.226439C0.371645 0.0814521 0.56829 -3.76472e-07 0.773331 -3.71551e-07C0.978373 -3.66631e-07 1.17502 0.0814522 1.32 0.226439L9.04682 7.95325C9.11866 8.02502 9.17565 8.11023 9.21454 8.20404C9.25342 8.29784 9.27344 8.39838 9.27344 8.49993C9.27344 8.60147 9.25342 8.70201 9.21454 8.79582C9.17565 8.88962 9.11866 8.97484 9.04682 9.0466L1.32 16.7734C1.24824 16.8453 1.16302 16.9022 1.06922 16.9411C0.975419 16.98 0.874873 17 0.77333 17C0.671788 17 0.571242 16.98 0.47744 16.9411C0.383637 16.9022 0.29842 16.8453 0.226658 16.7734Z" fill="white"/>
</svg>
