<svg width="42" height="41" viewBox="0 0 42 41" fill="none" xmlns="http://www.w3.org/2000/svg">
<path fill-rule="evenodd" clip-rule="evenodd" d="M19.6599 41.0001C24.003 41.0001 27.5238 37.5911 27.5238 33.3858V28.1144L13.9132 28.1144L13.9132 26.6501L33.573 26.6501C37.9162 26.6501 41.437 23.241 41.437 19.0358V7.61431C41.437 3.40904 37.9162 7.51673e-07 33.573 3.84037e-07L29.0361 0V6.44287C29.0361 10.6481 25.5153 14.0572 21.1722 14.0572L6.65412 14.0572C2.97915 14.0572 1.48472e-06 16.9418 1.16344e-06 20.5001L0 33.3858C-3.7969e-07 37.5911 3.52081 41.0001 7.86396 41.0001H19.6599ZM21.4746 31.6287C19.9713 31.6287 18.7525 32.8087 18.7525 34.2644C18.7525 35.7201 19.9713 36.9001 21.4746 36.9001C22.978 36.9001 24.1968 35.7201 24.1968 34.2644C24.1968 32.8087 22.978 31.6287 21.4746 31.6287Z" fill="url(#paint0_linear_2330_348)"/>
<defs>
<linearGradient id="paint0_linear_2330_348" x1="20.7185" y1="0" x2="20.7185" y2="41.0001" gradientUnits="userSpaceOnUse">
<stop stop-color="#FFDA4B"/>
<stop offset="1" stop-color="#F9C600"/>
</linearGradient>
</defs>
</svg>
